<svg width="1200" height="1200" xmlns="http://www.w3.org/2000/svg" _mstTextHash="15196272" _mstHidden="1" _mstHash="533">
    <g>
        <rect rx="100" stroke="null" id="svg_4" height="1050" width="1050" y="75" x="75" fill="#ff4c85"/>
        <rect stroke="null" rx="27" id="svg_5" height="100" width="455" y="253.33335" x="380" fill="#2d2d2d"/>
        <rect transform="rotate(-5 455.153 599.841)" stroke="null" rx="27" id="svg_7" height="693.2204" width="104.39993" y="253.2306" x="402.95306" fill="#2d2d2d"/>
        <rect stroke="null" rx="27" id="svg_8" height="37" width="37" y="581.5" x="581.49999" fill="#ff3873"/>
        <rect stroke="null" rx="27" id="svg_9" height="100" width="443.33333" y="403.33334" x="391.66666" fill="#2d2d2d"/>
        <path transform="rotate(-180 542.052 417.697)" stroke="null" id="svg_13" d="m441.21131,500.02481l99.70067,0c29.37251,0 56.71314,-27.7262 56.71314,-59.28275l0,-22.89446l-155.25273,0c-25.11522,0 -45.48938,-18.38817 -45.48938,-41.06982c0,-22.69418 20.37416,-41.08234 45.48938,-41.08234l155.25273,0l0,-40.56913c0,-22.96956 19.00574,-41.59556 44.12097,-41.59556c25.1014,0 45.47556,18.626 45.47556,41.59556l0,145.61575c0,77.98385 -64.75775,141.12198 -144.80303,141.12198l-99.67303,0c-25.12905,0 -45.86258,-18.31306 -45.86258,-41.28262s19.21308,-40.55661 44.3283,-40.55661z" fill="#2d2d2d"/>
    </g>
</svg>